<svg version="1.1" id="transring" xmlns="http://www.w3.org/2000/svg"
                xmlns:xlink="http://www.w3.org/1999/xlink" x="0px" y="0px" viewBox="0 0 414 414"
                style="enable-background:new 0 0 414 414; background-color: lightblue" xml:space="preserve">

    <path id="Transparent_Ring" class="transrg"
        style="opacity:0.4;fill:none;stroke:#FFFFFF;stroke-width:2;stroke-miterlimit:10;enable-background:new"
        d="M84.2,85c31.3-31.5,74.7-51,122.7-51c95.5,0,173,77.5,173,173s-77.5,173-173,173
        c-47.8,0-91-19.4-122.3-50.7"></path>

    <path id="Opaque_Ring" class="transrgwht" stroke-dasharray="0,1000"
        style="fill: none; stroke: rgb(255, 255, 255); stroke-width: 2; stroke-miterlimit: 10; stroke-dasharray: 10, 1000;"
        d="M84.2,85c31.3-31.5,74.7-51,122.7-51c95.5,0,173,77.5,173,173s-77.5,173-173,173
        c-47.8,0-91-19.4-122.3-50.7"></path>

    <g id="Dots1" class="dots-nav">
        <g>
            <path class="dotsst dotsfill1" style="fill: rgb(0, 146, 255); opacity: 1;"
                d="M84,80 c-3.3,0-6,2.7-6,6s2.7,6,6,6s6-2.7,6-6S87,80,84,80z"></path>
        </g>
        <g>
            <path class="dotsstro1"
                style="opacity: 1; fill: none; stroke: rgb(255, 255, 255); stroke-width: 2; stroke-miterlimit: 10;"
                d="M84,80c-3.3,0-6,2.7-6,6s2.7,6,6,6s6-2.7,6-6S87,80,84,80z"></path>
        </g>
    </g>
    <g id="Dots2" class="dots-nav">
        <g>
            <path class="dotsst dotsfill2" style="fill: rgb(0, 146, 255); opacity: 1;"
                d="M206.8,29c-3.3,0-6,2.7-6,6s2.7,6,6,6s6-2.7,6-6S210.1,29,206.8,29z"></path>
        </g>
        <g>
            <path class="dotsstro2"
                style="opacity: 1; fill: none; stroke: rgb(255, 255, 255); stroke-width: 2; stroke-miterlimit: 10;"
                d="M206.8,29c-3.3,0-6,2.7-6,6s2.7,6,6,6s6-2.7,6-6S210.1,29,206.8,29z"></path>
        </g>
    </g>
    <g id="Dots3" class="dots-nav">
        <g>
            <path class="dotsst dotsfill3" style="fill: rgb(0, 146, 255); opacity: 1;"
                d="M332,85c-3.3,0-6,2.7-6,6s2.7,6,6,6s6-2.7,6-6S335,85,332,85z"></path>
        </g>
        <g>
            <path class="dotsstro3"
                style="opacity: 1; fill: none; stroke: rgb(255, 255, 255); stroke-width: 2; stroke-miterlimit: 10;"
                d="M332,85c-3.3,0-6,2.7-6,6s2.7,6,6,6s6-2.7,6-6S335,85,332,85z"></path>
        </g>
    </g>
    <g id="Dots4" class="dots-nav">
        <g>
            <path class="dotsst dotsfill4" style="fill: rgb(0, 146, 255); opacity: 1;"
                d="M380,205c-3.3,0-6,2.7-6,6s2.7,6,6,6s6-2.7,6-6S383,205,380,205z"></path>
        </g>
        <g>
            <path class="dotsstro4"
                style="opacity: 1; fill: none; stroke: rgb(255, 255, 255); stroke-width: 2; stroke-miterlimit: 10;"
                d="M380,205c-3.3,0-6,2.7-6,6s2.7,6,6,6s6-2.7,6-6S383,205,380,205z"></path>
        </g>
    </g>
    <g id="Dots5" class="dots-nav">
        <g>
            <path class="dotsst dotsfill5" style="fill: rgb(0, 146, 255); opacity: 1;"
                d="M335,315c-3.3,0-6,2.7-6,6s2.7,6,6,6s6-2.7,6-6S340,315,335,315z"></path>
        </g>
        <g>
            <path class="dotsstro5"
                style="opacity: 1; fill: none; stroke: rgb(255, 255, 255); stroke-width: 2; stroke-miterlimit: 10;"
                d="M335,315c-3.3,0-6,2.7-6,6s2.7,6,6,6s6-2.7,6-6S340,315,335,315z"></path>
        </g>
    </g>
    <g id="Dots6" class="dots-nav">
        <g>
            <path class="dotsst dotsfill6" style="fill: rgb(0, 146, 255); opacity: 1;"
                d="M210,375c-3.3,0-6,2.7-6,6s2.7,6,6,6s6-2.7,6-6S215,375,210,375z"></path>
        </g>
        <g>
            <path class="dotsstro6"
                style="opacity: 1; fill: none; stroke: rgb(255, 255, 255); stroke-width: 2; stroke-miterlimit: 10;"
                d="M210,375c-3.3,0-6,2.7-6,6s2.7,6,6,6s6-2.7,6-6S215,375,210,375z"></path>
        </g>
    </g>
    <g id="Dots7" class="dots-nav">
        <g>
            <path class="dotsst dotsfill7" style="fill: rgb(0, 146, 255); opacity: 1;"
                d="M88,324c-3.3,0-6,2.7-6,6s2.7,6,6,6s6-2.7,6-6S92,324,88,324z"></path>
        </g>
        <g>
            <path class="dotsstro7"
                style="opacity: 1; fill: none; stroke: rgb(255, 255, 255); stroke-width: 2; stroke-miterlimit: 10;"
                d="M88,324c-3.3,0-6,2.7-6,6s2.7,6,6,6s6-2.7,6-6S92,324,88,324z"></path>
        </g>
    </g>
</svg>
